<svg xmlns="http://www.w3.org/2000/svg" width="1400" height="900" viewBox="0 0 1400 900">
  <defs>
    <linearGradient id="bg" x1="0" x2="1" y1="0" y2="1"><stop stop-color="#050816"/><stop offset=".6" stop-color="#0b1020"/><stop offset="1" stop-color="#8b5cf6"/></linearGradient>
    <linearGradient id="g" x1="0" x2="1"><stop stop-color="#f59e0b"/><stop offset="1" stop-color="#8b5cf6"/></linearGradient>
    <filter id="blur"><feGaussianBlur stdDeviation="18"/></filter>
  </defs>
  <rect width="1400" height="900" fill="url(#bg)"/>
  <circle cx="1110" cy="180" r="220" fill="#f59e0b" opacity=".18" filter="url(#blur)"/>
  <circle cx="245" cy="770" r="260" fill="#8b5cf6" opacity=".18" filter="url(#blur)"/>
  <g opacity=".17" stroke="#cbd5e1" stroke-width="1"><path d="M0 100H1400M0 200H1400M0 300H1400M0 400H1400M0 500H1400M0 600H1400M0 700H1400M0 800H1400"/><path d="M100 0V900M200 0V900M300 0V900M400 0V900M500 0V900M600 0V900M700 0V900M800 0V900M900 0V900M1000 0V900M1100 0V900M1200 0V900M1300 0V900"/></g>
  <rect x="100" y="110" width="1200" height="680" rx="44" fill="rgba(255,255,255,.065)" stroke="rgba(255,255,255,.18)"/>
  <rect x="155" y="170" width="300" height="42" rx="21" fill="rgba(255,255,255,.09)"/>
  <rect x="155" y="250" width="760" height="24" rx="12" fill="rgba(255,255,255,.12)"/>
  <rect x="155" y="300" width="660" height="24" rx="12" fill="rgba(255,255,255,.08)"/>
  <rect x="155" y="350" width="820" height="24" rx="12" fill="rgba(255,255,255,.08)"/>
  <g transform="translate(890 270)">
    <circle cx="120" cy="120" r="100" fill="none" stroke="url(#g)" stroke-width="10"/>
    <path d="M60 120h120M120 60v120" stroke="#f8fafc" stroke-width="8" stroke-linecap="round" opacity=".85"/>
    <circle cx="120" cy="120" r="26" fill="url(#g)"/>
  </g>
  <text x="155" y="530" font-family="Inter, Arial" font-size="66" font-weight="900" fill="#f8fafc">Support Analytics Dashboard</text>
  <text x="155" y="590" font-family="Inter, Arial" font-size="31" fill="#cbd5e1">SLA compliance and ticket insight view</text>
  <text x="155" y="665" font-family="Inter, Arial" font-size="25" fill="url(#g)">Portfolio project screenshot placeholder · Replace with real UI screenshot</text>
</svg>
